# xmcd
#
# Track frame offsets:
# 150
# 20534
# 40179
# 57179
# 72815
# 88562
# 108771
# 123149
# 135166
# 152359
# 172353
#
# Disc length: 2494 seconds
#
#
# Revision: 0
# Processed by: cddbd v1.5.1PL2 Copyright (c) Steve Scherf et al.
# Submitted via: FreeRIP 2.90 
#
DISCID=8009bc0b
DTITLE=B-nario - Dal cuore alla testa
DYEAR=2004
DGENRE=Pop
TTITLE0=Lo so bene
TTITLE1=Il cielo di Milano
TTITLE2=Meglio da soli
TTITLE3=Dal cuore alla testa
TTITLE4=Metto su un cd
TTITLE5=Nuova generazione
TTITLE6=Non cambieremo mai
TTITLE7=A parte te
TTITLE8=Milly
TTITLE9=Nel giorno del mio compleanno
TTITLE10=Appunti...
EXTD=
EXTT0=
EXTT1=
EXTT2=
EXTT3=
EXTT4=
EXTT5=
EXTT6=
EXTT7=
EXTT8=
EXTT9=
EXTT10=
PLAYORDER=
